<?xml version="1.0" encoding="UTF-8" standalone="no"?>
<!-- Created with Inkscape (http://www.inkscape.org/) -->

<svg
   width="180"
   height="180"
   viewBox="0 0 180 180"
   version="1.1"
   id="svg1"
   inkscape:export-filename="infomin-logo-light.svg"
   inkscape:export-xdpi="96"
   inkscape:export-ydpi="96"
   xmlns:inkscape="http://www.inkscape.org/namespaces/inkscape"
   xmlns:sodipodi="http://sodipodi.sourceforge.net/DTD/sodipodi-0.dtd"
   xmlns="http://www.w3.org/2000/svg"
   xmlns:svg="http://www.w3.org/2000/svg">
  <sodipodi:namedview
     id="namedview1"
     pagecolor="#ffffff"
     bordercolor="#000000"
     borderopacity="0.25"
     inkscape:showpageshadow="2"
     inkscape:pageopacity="0.0"
     inkscape:pagecheckerboard="0"
     inkscape:deskcolor="#d1d1d1"
     inkscape:document-units="px" />
  <defs
     id="defs1" />
  <g
     inkscape:label="Layer 1"
     inkscape:groupmode="layer"
     id="layer1">
    <g
       id="g5"
       transform="matrix(2.5784522,0,0,2.5784522,-149.778,-493.86621)">
      <path
         d="m 124.93832,229.82382 c -0.0427,-0.013 -0.23744,-0.21461 -0.43271,-0.44713 -0.19537,-0.23255 -1.68674,-1.82629 -3.3144,-3.54157 l -2.95937,-3.11863 -0.013,2.549 c -0.0196,3.68997 -0.007,3.73459 1.07509,3.94998 0.57501,0.11448 0.62146,0.14155 0.62146,0.36161 v 0.17939 h -1.97108 -1.97104 l 0.0163,-0.18819 0.0163,-0.1882 0.5413,-0.15818 c 0.47541,-0.13895 0.57077,-0.18689 0.78385,-0.39433 0.19537,-0.19015 0.25376,-0.28963 0.3004,-0.51054 0.0385,-0.18297 0.0577,-1.25444 0.0577,-3.21974 v -2.94532 l -0.16993,-0.22277 c -0.23842,-0.31246 -0.50953,-0.48738 -1.10284,-0.71096 -0.49241,-0.18558 -0.51455,-0.20059 -0.53011,-0.35897 l -0.0163,-0.16536 h 1.23628 1.23627 l 3.25957,3.37333 3.2596,3.37334 0.0163,-0.40852 c 0.01,-0.22472 0.007,-1.37561 -0.002,-2.55767 -0.0163,-2.06179 -0.0228,-2.16322 -0.13307,-2.49489 -0.16438,-0.49159 -0.28865,-0.58507 -1.0849,-0.8168 -0.373,-0.10861 -0.37548,-0.11057 -0.37548,-0.28898 v -0.17971 h 1.83846 1.83847 l -4.9e-4,0.16829 c -4.9e-4,0.16276 -0.0196,0.17744 -0.58262,0.45317 -0.55255,0.27039 -0.58829,0.29778 -0.70809,0.53937 -0.11416,0.23059 -0.12981,0.34501 -0.16471,1.21703 -0.0708,1.77222 -0.0522,4.51013 0.0378,5.60903 0.046,0.56181 0.0701,1.05701 0.0535,1.10049 -0.0228,0.0581 -0.10241,0.0773 -0.30398,0.0731 -0.15036,-0.003 -0.30855,-0.0163 -0.35121,-0.0293 z m -27.748297,-0.25473 c 0.01631,-0.1846 0.02283,-0.18982 0.447947,-0.34312 0.511744,-0.1846 0.799025,-0.42563 0.879456,-0.73826 0.06588,-0.25669 0.574921,-5.22611 0.615495,-6.01023 0.04501,-0.87124 -0.04892,-1.01087 -0.874955,-1.29838 -0.395566,-0.13764 -0.404535,-0.14449 -0.404535,-0.31311 v -0.17221 h 1.3639 1.363869 l 0.14188,0.53082 c 0.078,0.29191 0.22929,0.74058 0.33578,0.99691 0.27169,0.65378 2.60999,5.61894 2.64613,5.61894 0.0163,0 0.60975,-1.32251 1.31872,-2.93892 1.23955,-2.82604 1.42523,-3.3146 1.5057,-3.96176 l 0.0293,-0.24593 h 1.42098 1.42098 l -4.6e-4,0.1683 c -4.9e-4,0.16243 -0.0163,0.17352 -0.40137,0.31833 -0.4623,0.17287 -0.74916,0.42189 -0.83207,0.72212 -0.0427,0.15427 3.3e-4,0.81099 0.19929,3.05432 0.28767,3.24081 0.28734,3.23791 0.41102,3.56371 0.19537,0.51429 0.39687,0.6712 0.96028,0.74798 0.37192,0.0506 0.44018,0.0985 0.44018,0.30888 v 0.17938 h -2.17685 -2.1782 l 0.0163,-0.18786 c 0.0163,-0.18363 0.0261,-0.19081 0.40623,-0.32519 0.68967,-0.24298 0.90242,-0.47775 0.89567,-0.98894 -0.007,-0.50513 -0.38546,-5.71956 -0.42195,-5.80867 -0.0228,-0.0571 -0.43618,0.82146 -1.22641,2.61045 -1.54168,3.49026 -1.59707,3.6203 -1.79107,4.20536 l -0.16405,0.49469 h -0.27104 -0.27104 l -0.18428,-0.40134 c -0.10111,-0.22081 -0.53839,-1.13546 -0.9713,-2.03266 -0.82127,-1.70206 -1.67291,-3.55552 -1.968568,-4.28433 -0.09524,-0.2345 -0.179061,-0.42002 -0.186563,-0.41255 -0.0065,0.007 -0.09622,0.80176 -0.197326,1.76507 -0.201567,1.91909 -0.306916,3.53547 -0.256035,3.92057 0.06197,0.46663 0.315722,0.72433 0.926652,0.94129 0.35143,0.12492 0.36298,0.13438 0.37857,0.31638 l 0.0163,0.18754 h -1.689342 -1.689342 z m 13.403167,0.003 c 0,-0.21754 0.0672,-0.25277 0.71406,-0.37309 0.23777,-0.0444 0.48555,-0.12427 0.55545,-0.17906 0.25146,-0.19765 0.25831,-0.29909 0.25831,-3.82246 0,-3.27689 -3.2e-4,-3.28938 -0.11383,-3.53471 -0.12818,-0.27757 -0.20026,-0.31703 -0.77922,-0.42783 -0.53419,-0.10209 -0.65715,-0.17025 -0.67691,-0.37505 l -0.0163,-0.16797 h 2.33373 2.33371 v 0.17286 c 0,0.17287 -1.7e-4,0.17287 -0.42724,0.28702 -0.6015,0.16047 -0.84997,0.2929 -1.01328,0.5396 l -0.13894,0.21005 v 3.26639 c 0,3.47349 0.007,3.57297 0.2482,3.80011 0.0682,0.0639 0.27561,0.14905 0.47962,0.19635 0.85705,0.19961 0.82401,0.18395 0.84179,0.39755 l 0.0163,0.19276 h -2.30767 -2.30768 z"
         style="fill:#26336a;fill-opacity:1;stroke-width:0.161836"
         id="path1-5" />
      <path
         d="m 61.289061,218.03587 -1.254085,-0.68915 v -1.16062 c 0,-0.63834 0.01762,-1.15302 0.03915,-1.14373 0.02153,0.01 0.602919,0.30865 1.291974,0.66524 l 1.252827,0.64835 0.696828,-0.36366 c 0.383254,-0.20001 0.953768,-0.49862 1.267806,-0.66357 l 0.570979,-0.29992 -0.0136,1.17468 -0.0136,1.17468 -1.241417,0.67712 c -0.68278,0.37242 -1.26422,0.67546 -1.292088,0.67343 -0.02786,-0.002 -0.615009,-0.31382 -1.304755,-0.69285 z"
         style="fill:#26336a;fill-opacity:1;stroke-width:0.158344"
         id="path1" />
      <path
         style="fill:#11152a;stroke-width:0.160906"
         d="m 87.077081,233.90845 c 0,-0.31953 0.04504,-0.35725 0.148262,-0.1241 0.07703,0.17401 0.331113,0.35531 0.498396,0.35561 0.182511,3.2e-4 0.299583,-0.12137 0.261751,-0.27211 -0.0242,-0.0965 -0.120764,-0.18031 -0.345558,-0.30013 -0.357501,-0.19054 -0.511362,-0.35914 -0.511362,-0.56035 0,-0.34356 0.375951,-0.5357 0.81725,-0.41767 0.1585,0.0424 0.245601,0.0448 0.282621,0.008 0.105191,-0.10519 0.135848,-0.0492 0.132861,0.24256 -0.0024,0.2524 -0.01205,0.28106 -0.06436,0.19433 -0.117638,-0.19515 -0.386449,-0.4389 -0.484009,-0.4389 -0.175557,0 -0.291251,0.12401 -0.254029,0.2723 0.0242,0.0965 0.120764,0.18031 0.345558,0.30013 0.46359,0.24709 0.608029,0.48947 0.458346,0.76916 -0.121494,0.22701 -0.563768,0.32142 -0.921514,0.19671 -0.122935,-0.0428 -0.181084,-0.0428 -0.223939,0 -0.108677,0.10868 -0.140271,0.0579 -0.140271,-0.22531 z m 2.059601,0.21664 c 0.12621,-0.0638 0.129005,-0.0782 0.143037,-0.73835 0.01186,-0.55886 4.8e-4,-0.68462 -0.06589,-0.73986 -0.122647,-0.10179 -0.311395,0.0102 -0.439075,0.26045 -0.05977,0.11715 -0.119794,0.20188 -0.133394,0.18828 -0.01359,-0.0136 -0.009,-0.14328 0.01023,-0.28819 l 0.03496,-0.26346 h 0.810032 0.810037 l 0.03165,0.26729 c 0.03847,0.32486 0.01268,0.36684 -0.08442,0.13733 -0.09205,-0.21759 -0.257478,-0.36756 -0.379596,-0.34413 -0.08487,0.0163 -0.09532,0.0889 -0.108231,0.75226 -0.01407,0.72213 -0.01234,0.735 0.102977,0.78131 0.08364,0.0336 -0.02305,0.0478 -0.371879,0.0496 -0.426695,0.002 -0.472719,-0.006 -0.36043,-0.0625 z m 1.544699,-9e-5 c 0.127694,-0.0646 0.128727,-0.0707 0.128727,-0.75719 0,-0.68653 -9.61e-4,-0.6926 -0.128727,-0.7572 -0.111126,-0.0562 -0.04778,-0.0652 0.463413,-0.0658 0.461914,-4.8e-4 0.631647,0.0191 0.771797,0.0893 0.359403,0.1801 0.328549,0.5708 -0.05704,0.72226 -0.18566,0.0729 -0.197661,0.0872 -0.102962,0.1222 0.05895,0.0218 0.171326,0.13593 0.249721,0.25359 0.0784,0.11766 0.193618,0.26918 0.256051,0.33669 l 0.113513,0.12275 -0.422455,-0.001 c -0.312145,-9.6e-4 -0.398924,-0.0153 -0.332342,-0.0541 0.119151,-0.0694 0.113446,-0.18845 -0.01954,-0.40779 -0.107477,-0.17726 -0.187443,-0.2551 -0.263653,-0.25666 -0.02123,-4.8e-4 -0.03861,0.13898 -0.03861,0.30981 0,0.27398 0.01364,0.31609 0.115852,0.35717 0.08166,0.0328 -0.02853,0.0473 -0.373305,0.0491 -0.426941,0.002 -0.472782,-0.006 -0.360431,-0.0626 z m 0.965934,-0.91167 c 0.07422,-0.14169 0.0514,-0.43158 -0.04293,-0.54524 -0.03318,-0.04 -0.115376,-0.0726 -0.182707,-0.0726 -0.116957,0 -0.122417,0.0157 -0.122417,0.35184 0,0.19352 0.01642,0.36827 0.0365,0.38835 0.07203,0.072 0.245394,0.004 0.311554,-0.12232 z m 1.042178,0.91167 c 0.127694,-0.0646 0.128727,-0.0707 0.128727,-0.75719 0,-0.68653 -9.6e-4,-0.6926 -0.128727,-0.7572 -0.112351,-0.0568 -0.06651,-0.0648 0.360431,-0.0626 0.344771,0.002 0.454961,0.0162 0.373305,0.0491 -0.112447,0.0452 -0.115852,0.0679 -0.115852,0.77075 0,0.70287 0.0034,0.72554 0.115852,0.77074 0.08166,0.0328 -0.02853,0.0473 -0.373305,0.0491 -0.42694,0.002 -0.472782,-0.006 -0.360431,-0.0626 z m 1.638452,-0.70382 c -0.293786,-0.61906 -0.392048,-0.78016 -0.500019,-0.81978 -0.100385,-0.0368 -0.0043,-0.0486 0.380522,-0.0463 0.283198,10e-4 0.46277,0.013 0.39905,0.0253 -0.06372,0.0123 -0.115852,0.0528 -0.115852,0.0899 0,0.0667 0.371057,0.93131 0.421178,0.98144 0.01421,0.0142 0.115765,-0.19681 0.225725,-0.46889 0.193973,-0.47997 0.196989,-0.49682 0.101349,-0.56675 -0.08848,-0.0647 -0.06726,-0.0719 0.207343,-0.0704 l 0.305912,10e-4 -0.1414,0.1055 c -0.163393,0.12191 -0.421562,0.56819 -0.659417,1.13988 -0.09132,0.21947 -0.186891,0.39905 -0.21239,0.39905 -0.0255,0 -0.210896,-0.34672 -0.412001,-0.77047 z m 1.656911,0.70382 c 0.127695,-0.0646 0.128727,-0.0707 0.128727,-0.75719 0,-0.68653 -9.6e-4,-0.6926 -0.128727,-0.7572 -0.109772,-0.0555 -0.02166,-0.0652 0.59857,-0.0659 l 0.7273,-9.6e-4 0.03217,0.16091 c 0.01772,0.0885 0.03117,0.22173 0.02992,0.29606 -0.0019,0.12805 -0.0075,0.12517 -0.102559,-0.0547 -0.162539,-0.30774 -0.449881,-0.44483 -0.605725,-0.28898 -0.07774,0.0777 -0.0839,0.71056 -0.0069,0.71056 0.113955,0 0.261151,-0.11419 0.319314,-0.24771 0.05939,-0.13633 0.06059,-0.13508 0.0778,0.0817 0.0096,0.1211 0.0095,0.30647 -3.26e-4,0.41192 l -0.01782,0.19173 -0.0615,-0.14253 c -0.04971,-0.11519 -0.234177,-0.24365 -0.34989,-0.24365 -0.05276,0 -0.01671,0.60297 0.03938,0.65907 0.08628,0.0863 0.30546,0.077 0.442072,-0.0187 0.06317,-0.0442 0.159984,-0.16589 0.215141,-0.27032 0.09501,-0.17988 0.100409,-0.18276 0.102565,-0.0547 0.0014,0.0743 -0.0122,0.20757 -0.02992,0.29607 l -0.03217,0.1609 -0.75304,-9.6e-4 c -0.640982,-4.8e-4 -0.733889,-0.0104 -0.624319,-0.0659 z m 3.501323,9e-5 c 0.12621,-0.0638 0.129005,-0.0782 0.143037,-0.73835 0.01186,-0.55886 4.8e-4,-0.68462 -0.06589,-0.73986 -0.122647,-0.10179 -0.311395,0.0102 -0.439075,0.26045 -0.05977,0.11715 -0.119794,0.20188 -0.133394,0.18828 -0.01359,-0.0136 -0.009,-0.14328 0.01023,-0.28819 l 0.03496,-0.26346 h 0.810037 0.810036 l 0.0316,0.26729 c 0.0385,0.32486 0.0127,0.36684 -0.0844,0.13733 -0.0921,-0.21759 -0.25747,-0.36756 -0.37959,-0.34413 -0.0849,0.0163 -0.0953,0.0889 -0.10823,0.75226 -0.0141,0.72213 -0.0123,0.735 0.10298,0.78131 0.0836,0.0336 -0.0231,0.0478 -0.371888,0.0496 -0.42669,0.002 -0.472714,-0.006 -0.36043,-0.0625 z m 1.852831,-0.0289 c -0.55058,-0.29298 -0.5379,-1.20368 0.0205,-1.46863 0.23286,-0.1105 0.58276,-0.10601 0.805,0.0103 0.21371,0.11187 0.41112,0.46237 0.41112,0.72993 0,0.26755 -0.19741,0.61805 -0.41112,0.72992 -0.23061,0.12072 -0.59696,0.12003 -0.82545,-0.001 z m 0.63927,-0.12714 c 0.0908,-0.12203 0.10815,-0.21859 0.10815,-0.60123 0,-0.38334 -0.0173,-0.47899 -0.10854,-0.60124 -0.22303,-0.29872 -0.51093,-0.10716 -0.56841,0.37819 -0.0422,0.35598 0.0157,0.70161 0.14485,0.86585 0.1322,0.16806 0.27868,0.1537 0.42395,-0.0416 z m 1.52147,-0.5482 c -0.29712,-0.61193 -0.40175,-0.7809 -0.50761,-0.81978 -0.10216,-0.0375 -0.0249,-0.0497 0.33005,-0.0522 0.27716,-0.002 0.43533,0.0145 0.39353,0.041 -0.0844,0.0535 -0.0638,0.12631 0.19271,0.68181 l 0.19265,0.41722 0.16722,-0.37397 c 0.144,-0.32205 0.15912,-0.39351 0.10891,-0.51472 -0.0321,-0.0774 -0.10878,-0.16515 -0.17048,-0.19499 -0.0866,-0.0418 -4.8e-4,-0.0534 0.37696,-0.0507 0.26904,0.002 0.43702,0.0136 0.3733,0.0258 -0.0652,0.0126 -0.11593,0.0601 -0.11603,0.10884 -1.7e-4,0.1059 0.36862,0.93611 0.4159,0.93611 0.0392,0 0.33714,-0.65099 0.38473,-0.84063 0.0232,-0.0926 0.006,-0.14282 -0.0624,-0.18262 -0.0748,-0.0435 -0.0322,-0.0552 0.20529,-0.0565 l 0.29974,-0.001 -0.18471,0.1742 c -0.12026,0.11342 -0.29232,0.40086 -0.49314,0.82384 -0.16964,0.3573 -0.32581,0.64964 -0.34705,0.64964 -0.0212,0 -0.15262,-0.25372 -0.29195,-0.56382 -0.13933,-0.31011 -0.26909,-0.55408 -0.28836,-0.54218 -0.0193,0.0119 -0.14728,0.26564 -0.28445,0.56383 -0.13718,0.29819 -0.26542,0.54217 -0.28499,0.54217 -0.0196,0 -0.204,-0.34687 -0.40984,-0.77081 z m 2.03174,0.642 c 0.1378,-0.12772 0.29929,-0.44193 0.57998,-1.12852 0.0801,-0.19594 0.16975,-0.36423 0.19919,-0.37399 0.0294,-0.01 0.18865,0.27799 0.35376,0.63944 0.36079,0.78981 0.41532,0.88116 0.56114,0.93989 0.0764,0.0308 -0.0534,0.0455 -0.40205,0.0455 -0.35805,0 -0.47961,-0.0142 -0.39905,-0.0466 0.13236,-0.0532 0.13703,-0.0768 0.0593,-0.29966 -0.0539,-0.15466 -0.0693,-0.16215 -0.33236,-0.16215 h -0.27582 l -0.0353,0.18846 c -0.0281,0.15004 -0.0161,0.20252 0.059,0.25745 0.0828,0.0606 0.0576,0.069 -0.2062,0.069 h -0.30056 z m 0.75062,-0.69694 c -0.0562,-0.14265 -0.10223,-0.27395 -0.10223,-0.29178 0,-0.0677 -0.0464,0.0196 -0.14941,0.28081 l -0.10653,0.27032 h 0.2302 0.2302 z m 1.33949,0.7591 c 0.1277,-0.0646 0.12873,-0.0707 0.12873,-0.75719 0,-0.68653 -9.6e-4,-0.6926 -0.12873,-0.7572 -0.11113,-0.0562 -0.0478,-0.0652 0.46342,-0.0658 0.46191,-4.8e-4 0.63164,0.0191 0.77179,0.0893 0.35941,0.1801 0.32855,0.5708 -0.057,0.72226 -0.18566,0.0729 -0.19766,0.0872 -0.10296,0.1222 0.0589,0.0218 0.17133,0.13593 0.24972,0.25359 0.0784,0.11766 0.19362,0.26918 0.25605,0.33669 l 0.11351,0.12275 -0.42245,-0.001 c -0.31214,-9.6e-4 -0.39892,-0.0153 -0.33234,-0.0541 0.11915,-0.0694 0.11345,-0.18845 -0.0196,-0.40779 -0.10747,-0.17726 -0.18743,-0.2551 -0.26364,-0.25666 -0.0212,-4.8e-4 -0.0386,0.13898 -0.0386,0.30981 0,0.27398 0.0136,0.31609 0.11585,0.35717 0.0817,0.0328 -0.0285,0.0473 -0.3733,0.0491 -0.42694,0.002 -0.47278,-0.006 -0.36043,-0.0626 z m 0.96593,-0.91167 c 0.0742,-0.14169 0.0514,-0.43158 -0.0429,-0.54524 -0.0332,-0.04 -0.11537,-0.0726 -0.1827,-0.0726 -0.11696,0 -0.12243,0.0157 -0.12243,0.35184 0,0.19352 0.0164,0.36827 0.0365,0.38835 0.072,0.072 0.24539,0.004 0.31155,-0.12232 z m 0.9907,0.91167 c 0.12769,-0.0646 0.12872,-0.0707 0.12872,-0.75719 0,-0.68653 -9.6e-4,-0.6926 -0.12872,-0.7572 -0.1105,-0.0559 -0.0368,-0.0652 0.52015,-0.0659 0.5896,-4.8e-4 0.66487,0.01 0.82385,0.11612 0.22295,0.14895 0.355,0.41193 0.355,0.70697 0,0.29503 -0.13205,0.55802 -0.355,0.70695 -0.15898,0.1062 -0.23425,0.11682 -0.82385,0.11612 -0.55698,-4.8e-4 -0.63065,-0.01 -0.52015,-0.0659 z m 1.02645,-0.0845 c 0.11588,-0.11589 0.20873,-0.41512 0.20873,-0.67271 0,-0.45241 -0.19173,-0.77235 -0.46283,-0.77235 h -0.15447 v 0.73801 c 0,0.40592 0.0155,0.75348 0.0343,0.77236 0.0684,0.0684 0.27689,0.032 0.37425,-0.0653 z m 0.87868,-0.13207 c 0,-0.31953 0.045,-0.35725 0.14826,-0.1241 0.077,0.17401 0.33111,0.35531 0.4984,0.35561 0.18251,3.2e-4 0.29958,-0.12137 0.26175,-0.27211 -0.0242,-0.0965 -0.12077,-0.18031 -0.34556,-0.30013 -0.34926,-0.18615 -0.51136,-0.35889 -0.51136,-0.54493 0,-0.37461 0.42107,-0.57798 0.87154,-0.42094 0.12294,0.0428 0.18109,0.0428 0.22395,0 0.10979,-0.10979 0.14026,-0.0569 0.13724,0.23818 -0.002,0.2524 -0.0121,0.28106 -0.0644,0.19432 -0.11764,-0.19514 -0.38645,-0.43889 -0.48401,-0.43889 -0.17556,0 -0.29125,0.124 -0.25403,0.27229 0.0242,0.0965 0.12076,0.18032 0.34556,0.30014 0.46359,0.24709 0.60802,0.48947 0.45834,0.76916 -0.12149,0.22701 -0.56377,0.32142 -0.92151,0.19671 -0.12294,-0.0428 -0.18109,-0.0428 -0.22394,0 -0.10868,0.10867 -0.14027,0.0579 -0.14027,-0.22531 z m 3.0894,0.21655 c 0.12769,-0.0646 0.12872,-0.0707 0.12872,-0.75719 0,-0.68653 -9.6e-4,-0.6926 -0.12872,-0.7572 -0.10999,-0.0557 -0.0267,-0.0652 0.57283,-0.0659 l 0.70155,-9.6e-4 0.0322,0.16091 c 0.0177,0.0885 0.0318,0.22173 0.0313,0.29606 -9.6e-4,0.12571 -0.009,0.12086 -0.11662,-0.0693 -0.14343,-0.25324 -0.35684,-0.3869 -0.48709,-0.30508 -0.0699,0.0439 -0.094,0.14067 -0.10568,0.42479 -0.01,0.24425 0.004,0.36791 0.042,0.36791 0.11606,0 0.26295,-0.11316 0.32157,-0.24771 0.0594,-0.13634 0.0606,-0.13507 0.0778,0.0817 0.01,0.12111 0.009,0.30647 -3.2e-4,0.41192 l -0.0178,0.19173 -0.0615,-0.14253 c -0.0497,-0.11519 -0.23417,-0.24365 -0.34988,-0.24365 -0.0123,0 -0.0224,0.13977 -0.0224,0.3106 0,0.27398 0.0136,0.31609 0.11585,0.35716 0.0816,0.0328 -0.0285,0.0473 -0.3733,0.0491 -0.42694,0.002 -0.47279,-0.006 -0.36043,-0.0626 z m 2.07119,-0.0365 c -0.22806,-0.13905 -0.26904,-0.27611 -0.26904,-0.89992 v -0.533 l -0.1416,-0.0517 c -0.11227,-0.041 -0.0403,-0.0519 0.34756,-0.0525 0.35394,-4.8e-4 0.45597,0.0125 0.3691,0.0473 -0.11807,0.0473 -0.11977,0.0587 -0.10298,0.68661 0.0145,0.54053 0.0321,0.6551 0.11516,0.74671 0.12927,0.14263 0.30044,0.13693 0.47831,-0.0159 0.14313,-0.123 0.14447,-0.1298 0.14447,-0.73196 0,-0.59657 -0.002,-0.60902 -0.12873,-0.67319 -0.11748,-0.0597 -0.10174,-0.0651 0.18022,-0.0621 0.26852,0.003 0.29042,0.0101 0.16734,0.055 l -0.1416,0.0517 v 0.52868 c 0,0.61778 -0.0586,0.82737 -0.26047,0.93177 -0.20801,0.10757 -0.55696,0.0949 -0.75774,-0.0275 z m 1.89354,0.0366 c 0.12621,-0.0638 0.12901,-0.0782 0.14304,-0.73835 0.0119,-0.55885 4.8e-4,-0.68461 -0.0659,-0.73986 -0.12264,-0.10179 -0.31139,0.0102 -0.43907,0.26045 -0.0598,0.11715 -0.1198,0.20188 -0.1334,0.18828 -0.0136,-0.0136 -0.009,-0.14328 0.0102,-0.28818 l 0.035,-0.26346 h 0.81003 0.81004 l 0.0316,0.26729 c 0.0385,0.32486 0.0127,0.36684 -0.0844,0.13732 -0.0921,-0.21759 -0.25748,-0.36756 -0.3796,-0.34412 -0.0849,0.0163 -0.0953,0.0889 -0.10823,0.75225 -0.0141,0.72214 -0.0123,0.735 0.10298,0.78132 0.0836,0.0336 -0.023,0.0478 -0.37188,0.0496 -0.42669,0.002 -0.47272,-0.006 -0.36043,-0.0625 z m 2.0197,-0.0366 c -0.22806,-0.13905 -0.26903,-0.27611 -0.26903,-0.89992 v -0.533 l -0.14161,-0.0517 c -0.11227,-0.041 -0.0403,-0.0519 0.34756,-0.0525 0.35394,-4.8e-4 0.45597,0.0125 0.3691,0.0473 -0.11807,0.0473 -0.11977,0.0587 -0.10297,0.68661 0.0145,0.54053 0.0321,0.6551 0.11516,0.74671 0.12927,0.14263 0.30043,0.13693 0.4783,-0.0159 0.14313,-0.123 0.14447,-0.1298 0.14447,-0.73196 0,-0.59657 -0.002,-0.60902 -0.12873,-0.67319 -0.11748,-0.0597 -0.10174,-0.0651 0.18022,-0.0621 0.26852,0.003 0.29042,0.0101 0.16734,0.055 l -0.14159,0.0517 v 0.52868 c 0,0.61778 -0.0586,0.82737 -0.26048,0.93177 -0.20801,0.10757 -0.55696,0.0949 -0.75774,-0.0275 z m 1.53311,0.0365 c 0.1277,-0.0646 0.12873,-0.0707 0.12873,-0.75719 0,-0.68653 -9.6e-4,-0.6926 -0.12873,-0.7572 -0.11112,-0.0562 -0.0478,-0.0652 0.46342,-0.0658 0.46191,-4.8e-4 0.63164,0.0191 0.77179,0.0893 0.35941,0.1801 0.32855,0.5708 -0.057,0.72226 -0.18566,0.0729 -0.19766,0.0872 -0.10296,0.1222 0.0589,0.0218 0.17133,0.13593 0.24972,0.25359 0.0784,0.11766 0.19362,0.26918 0.25605,0.33669 l 0.11352,0.12275 -0.42245,-0.001 c -0.31215,-9.6e-4 -0.39893,-0.0153 -0.33235,-0.0541 0.11915,-0.0694 0.11344,-0.18845 -0.0195,-0.40779 -0.10747,-0.17726 -0.18744,-0.2551 -0.26365,-0.25666 -0.0212,-4.8e-4 -0.0386,0.13898 -0.0386,0.30981 0,0.27398 0.0136,0.31609 0.11585,0.35717 0.0817,0.0328 -0.0285,0.0473 -0.3733,0.0491 -0.42694,0.002 -0.47278,-0.006 -0.36043,-0.0626 z m 0.96594,-0.91167 c 0.0742,-0.14169 0.0514,-0.43158 -0.0429,-0.54524 -0.0331,-0.04 -0.11538,-0.0726 -0.18271,-0.0726 -0.11696,0 -0.12242,0.0157 -0.12242,0.35184 0,0.19352 0.0164,0.36827 0.0365,0.38835 0.072,0.072 0.24539,0.004 0.31155,-0.12232 z m 0.99069,0.91167 c 0.12769,-0.0646 0.12872,-0.0707 0.12872,-0.75719 0,-0.68653 -9.6e-4,-0.6926 -0.12872,-0.7572 -0.10978,-0.0555 -0.0217,-0.0652 0.59857,-0.0659 l 0.7273,-9.6e-4 0.0322,0.16091 c 0.0177,0.0885 0.0312,0.22173 0.0299,0.29606 -0.002,0.12805 -0.008,0.12517 -0.10257,-0.0547 -0.16253,-0.30774 -0.44988,-0.44483 -0.60572,-0.28898 -0.0777,0.0777 -0.0839,0.71056 -0.007,0.71056 0.11396,0 0.26115,-0.11419 0.31932,-0.24771 0.0594,-0.13633 0.0606,-0.13508 0.0778,0.0817 0.01,0.1211 0.009,0.30647 -3.2e-4,0.41192 l -0.0178,0.19173 -0.0615,-0.14253 c -0.0497,-0.11519 -0.23418,-0.24365 -0.3499,-0.24365 -0.0527,0 -0.0167,0.60297 0.0394,0.65907 0.0863,0.0863 0.30546,0.077 0.44207,-0.0187 0.0632,-0.0442 0.15999,-0.16589 0.21515,-0.27032 0.095,-0.17988 0.1004,-0.18276 0.10256,-0.0547 0.001,0.0743 -0.0122,0.20757 -0.0299,0.29607 l -0.0322,0.1609 -0.75304,-9.6e-4 c -0.64098,-4.8e-4 -0.73389,-0.0104 -0.62432,-0.0659 z m -62.663379,-3.09547 -1.261506,-0.74159 -0.01311,-5.20767 -0.01311,-5.20768 0.708234,0.36961 c 0.389529,0.20329 0.96519,0.50455 1.279247,0.66948 l 0.571014,0.29987 1.187943,-0.61544 c 0.653368,-0.33849 1.224758,-0.62956 1.269755,-0.64683 0.07428,-0.0285 0.08181,0.30304 0.08181,3.60113 0,2.36613 0.01795,3.64361 0.05149,3.66433 0.03243,0.02 0.05149,0.59078 0.05149,1.54207 v 1.51025 l -1.279344,0.75228 c -0.703639,0.41375 -1.30028,0.75216 -1.325868,0.75203 -0.02559,-1.4e-4 -0.614203,-0.33396 -1.308031,-0.74184 z m 29.915714,-1.24906 c -1.728175,-0.12328 -3.279324,-1.17215 -3.938799,-2.66334 -0.453511,-1.02546 -0.502089,-2.4631 -0.121941,-3.60859 0.564897,-1.70218 2.070891,-2.85835 4.003018,-3.0732 2.424531,-0.26959 4.597827,1.17483 5.164669,3.43255 0.163312,0.65049 0.162884,1.86343 -9.61e-4,2.47153 -0.512673,1.90367 -2.147878,3.21784 -4.259347,3.42313 -0.281622,0.0274 -0.535205,0.0463 -0.563523,0.0421 -0.02833,-0.004 -0.155758,-0.0151 -0.283198,-0.0242 z m 1.366539,-0.61074 c 0.788346,-0.20259 1.451408,-0.75736 1.8135,-1.51732 0.349751,-0.73407 0.399054,-1.00731 0.394843,-2.18833 -0.0034,-0.94762 -0.01469,-1.07088 -0.141563,-1.5447 -0.205566,-0.76759 -0.580374,-1.48232 -1.030047,-1.96423 -0.649593,-0.69614 -1.291881,-0.99645 -2.131211,-0.99645 -1.282151,0 -2.233246,0.68912 -2.692827,1.95109 -0.216404,0.59423 -0.274285,1.06985 -0.243296,1.99933 0.03333,0.99911 0.172978,1.59954 0.548305,2.35712 0.63594,1.2836 1.603156,1.96376 2.812924,1.97807 0.199366,0.002 0.500586,-0.0312 0.669372,-0.0746 z m -17.32357,0.32345 c -0.107283,-0.12036 -0.380713,-0.42737 -0.607621,-0.68224 -0.535445,-0.60144 -5.783334,-6.122 -5.840991,-6.14448 -0.0635,-0.0248 -0.05478,4.72262 0.0096,5.23621 0.06608,0.527 0.171548,0.80104 0.359903,0.93516 0.07941,0.0566 0.401159,0.16292 0.715005,0.23637 l 0.570627,0.13357 v 0.20063 0.20063 h -1.956623 -1.956621 l -0.0077,-0.12872 c -0.0042,-0.0708 -0.01004,-0.15541 -0.01287,-0.18803 -0.0028,-0.0326 0.197102,-0.11299 0.444298,-0.17861 0.721134,-0.19143 0.98144,-0.36257 1.144285,-0.75232 0.06895,-0.16502 0.07969,-0.61048 0.07969,-3.3041 v -3.11337 l -0.256427,-0.26326 c -0.259658,-0.26658 -0.493946,-0.39319 -1.149166,-0.62101 l -0.350045,-0.12171 0.01537,-0.18268 0.01537,-0.18269 1.190591,-0.0138 1.190591,-0.0138 3.263297,3.37656 3.263297,3.37655 0.01561,-2.28146 c 0.01671,-2.44146 -0.01067,-2.85302 -0.220846,-3.31977 -0.147902,-0.32846 -0.262181,-0.40515 -0.863604,-0.57951 l -0.475861,-0.13796 v -0.2034 -0.2034 l 1.818017,-0.0135 1.818016,-0.0135 -0.01587,0.21025 c -0.01577,0.20898 -0.01827,0.21132 -0.412825,0.385 -0.956892,0.42121 -0.973292,0.4545 -1.02515,2.08076 -0.06755,2.11841 -0.05287,4.06724 0.03944,5.23505 0.04727,0.59803 0.07143,1.12516 0.05368,1.1714 -0.02496,0.0651 -0.103254,0.0841 -0.345831,0.0841 -0.303976,0 -0.319529,-0.007 -0.508623,-0.21883 z m 2.888321,-0.0772 0.01599,-0.19309 0.43767,-0.11879 c 0.703286,-0.19089 0.785139,-0.22942 0.898969,-0.42319 0.102872,-0.17511 0.105086,-0.24929 0.105086,-3.52573 0,-3.27753 -0.0024,-3.35111 -0.105993,-3.55281 -0.123795,-0.24056 -0.343077,-0.36017 -0.990806,-0.54046 l -0.427436,-0.11898 0.01551,-0.18518 0.01551,-0.18518 4.05484,-0.0132 4.054843,-0.0132 v 1.08161 1.08159 h -0.179485 c -0.199573,0 -0.224073,-0.0298 -0.649021,-0.7907 -0.253073,-0.45312 -0.466044,-0.66751 -0.75341,-0.75842 -0.125129,-0.0396 -0.745371,-0.0695 -1.739191,-0.0839 -1.31397,-0.019 -1.560086,-0.0109 -1.647682,0.0545 -0.09866,0.0736 -0.103606,0.14596 -0.117878,1.72107 l -0.01489,1.64419 0.81299,0.0346 c 0.800721,0.0341 1.670559,-0.0175 2.01838,-0.11965 0.253246,-0.0744 0.36905,-0.20487 0.597301,-0.67303 0.200749,-0.41174 0.204365,-0.41551 0.384254,-0.40035 l 0.181598,0.0153 0.01364,1.50182 0.01364,1.50182 -0.153982,0.0338 c -0.08469,0.0186 -0.178299,0.0188 -0.208014,4.8e-4 -0.02973,-0.0184 -0.135767,-0.1957 -0.235666,-0.39407 -0.231411,-0.45953 -0.525418,-0.78083 -0.785892,-0.85887 -0.12816,-0.0384 -0.640343,-0.06 -1.421082,-0.06 H 81.19965 l 0.01724,1.66055 c 0.02267,2.1843 0.0081,2.15086 1.025327,2.34985 0.31784,0.0622 0.597311,0.12504 0.621038,0.13971 0.02372,0.0146 0.04312,0.10639 0.04312,0.20384 v 0.17717 h -2.345906 -2.345907 z"
         id="path5"
         sodipodi:nodetypes="sssssssssssssssssssscssscccsssssssscsccsssssccsscsssccsssssssscssssssssssssssscssssscscccsssssssccssssscsccccsscssscccsssssssscssssccsssssscsssscssssscsssccsssssssccssssssssscssscsssscccscsccsssssccsscsssccssssssssccsssssssscsssssssssssssssssssscscccssssssssccsssssccsscscsssssssscsssssscssscccsssssssssscscsssssssscsssscsccsssssccsscsssccsssssscscccsssssssccssssscsccccccccsscssssscssscssssscssssssssssssssssssssscccccssssscsscccccccssscccccssssssssccssssscccccccsssssscsssscccscssscsssscccc" />
    </g>
  </g>
</svg>
